<?xml version="1.0" encoding="utf-8"?><svg xmlns="http://www.w3.org/2000/svg" xmlns:xlink="http://www.w3.org/1999/xlink"><symbol viewBox="0 0 496 496" id="belarus" xmlns="http://www.w3.org/2000/svg"><path d="M0 304.8v64.8c0 27.2 21.6 48.8 48 48.8h400c26.4 0 48-21.6 48-48.8v-64.8H0z"/><path d="M448 77.6H48c-26.4 0-48 21.6-48 48.8v180h496v-180c0-27.2-21.6-48.8-48-48.8z"/><path d="M448 418.4c26.4 0 48-21.6 48-48.8v-64.8H315.2L448 418.4z"/><path d="M448 77.6H48l132 112 136.8 116H496V126.4c0-27.2-21.6-48.8-48-48.8z"/><path d="M448 77.6H48l367.2 112 80.8 24.8v-88.8c0-26.4-21.6-48-48-48zM496 369.6c0 27.2-21.6 48.8-48 48.8H48c-26.4 0-48-21.6-48-48.8"/><path d="M120.8 195.2h-3.2v5.6h-4v5.6h-3.2v-5.6h-3.2v-5.6H104v-5.6h6.4V184h-9.6v5.6h-3.2v5.6h-3.2v5.6h3.2v5.6h3.2v5.6h3.2v5.6h3.2v5.6h3.2v5.6h3.2v-5.6h4v-5.6h3.2V212h3.2v-5.6h-3.2v-5.6h3.2v-11.2h-3.2zm-69.6 22.4h3.2v5.6h3.2v5.6h4v-5.6h3.2v-5.6H68V212h3.2v-5.6h3.2v-5.6h3.2v-5.6h-3.2v-5.6h-3.2V184h-9.6v5.6H68v5.6h-3.2v5.6h-3.2v5.6h-4v-5.6h-3.2v-5.6h-3.2v-5.6H48v11.2h3.2v5.6H48v5.6h3.2zm0-123.2h3.2v-5.6h3.2v-5.6h4v-5.6H48v5.6h3.2v5.6H48V100h3.2zm69.6 16.8h-3.2v5.6h-3.2v5.6h-3.2v5.6H108v5.6h-4V128h-3.2v-5.6h-3.2v-5.6h-3.2v-5.6h-3.2v-5.6H88V100h3.2v-5.6h3.2v-5.6h3.2v-5.6h3.2v-5.6H88v11.2h-4V77.6H71.2v5.6h3.2v5.6h3.2v5.6h3.2v5.6H84v5.6h-3.2v5.6h-3.2v5.6h-3.2v5.6h-3.2v5.6H68v5.6h-3.2V128h-3.2v-5.6h-4v-5.6h-3.2v-5.6h-3.2v-5.6H48v11.2h3.2v5.6H48v16.8h3.2v-5.6h3.2V128h3.2v5.6h3.2v5.6H64v5.6h-2.4v5.6h-4v5.6h-3.2v-5.6h-3.2v-5.6H48v16.8h3.2v5.6H48v11.2h3.2v-5.6h3.2v-5.6h3.2v-5.6h3.2V156H64v-5.6h3.2v5.6h3.2v5.6h3.2v5.6h3.2v5.6H80v5.6h3.2v5.6H88v-5.6h3.2v-5.6h3.2v-5.6h3.2v-5.6h3.2V156h3.2v-5.6h3.2v5.6h3.2v5.6h3.2v5.6h3.2v5.6h3.2v5.6h3.2v-11.2H120v-5.6h3.2v-16.8H120v5.6h-3.2v5.6h-3.2v-5.6h-3.2v-5.6h-3.2v-5.6h3.2v-5.6h3.2V128h3.2v5.6h3.2v5.6h3.2v-16.8H120v-5.6h3.2v-11.2H120v5.6h.8zM84 116.8h4V128h-4v-11.2zm-3.2 28v5.6h-3.2v5.6h-3.2v-5.6h-3.2v-5.6H68v-5.6h3.2v-5.6h3.2V128h3.2v5.6h3.2v5.6H84v5.6h-3.2zm7.2 22.4h-4V156h4v11.2zm16-22.4h-3.2v5.6h-3.2v5.6h-3.2v-5.6h-3.2v-5.6H88v-5.6h3.2v-5.6h3.2V128h3.2v5.6h3.2v5.6h3.2v5.6zm20-61.6v-5.6h-13.6v5.6h3.2v5.6h4v5.6h3.2v5.6h3.2V88.8h-3.2v-5.6zm-66.4 324h-3.2v-5.6h-3.2V396H48v11.2h3.2v5.6H48v5.6h13.6v-5.6h-4zm-6.4-106.4h3.2v-5.6h3.2v-5.6h4v5.6h3.2v5.6H68v5.6h-6.4v5.6h9.6v-5.6h3.2v-5.6h3.2v-5.6h-3.2v-5.6h-3.2V284H68v-5.6h-3.2v-5.6h-3.2v-5.6h-4v5.6h-3.2v5.6h-3.2v5.6H48v5.6h3.2v5.6H48v11.2h3.2zm69.6 100.8h-3.2v5.6h-4v5.6h-3.2v5.6H124v-5.6h-3.2v-5.6h3.2V396h-3.2zM86.4 206.4h-1.6v5.6h-3.2v5.6h-3.2v5.6h-3.2v5.6h-4v5.6H68v28h3.2v5.6h3.2v5.6h3.2v5.6h3.2v5.6H84v5.6h4v-5.6h3.2v-5.6h3.2v-5.6h3.2V268h3.2v-5.6h3.2v-28h-3.2v-5.6h-3.2v-5.6h-3.2v-5.6h-3.2V212H88v-5.6h-1.6zm-12 40.8v3.2h-3.2v-5.6h3.2v2.4zm23.2 1.6v-3.2h3.2v5.6h-3.2v-2.4zM84 217.6h4v5.6h-4v-5.6zm4 60.8h-4v-5.6h4v5.6zm3.2-44v-5.6h3.2V240h-3.2v5.6H88v5.6h3.2v4.8h3.2v11.2h-3.2v-5.6H88V256h-4v5.6h-3.2v5.6h-3.2V256h3.2v-5.6H84v-5.6h-3.2V240h-3.2v-11.2h3.2v5.6H84v5.6h4v-5.6h3.2zm-40 27.2h3.2V256h3.2v-5.6h4v-4.8h-4V240h-3.2v-5.6h-3.2v-5.6H48v38.4h3.2zm69.6-27.2h-3.2v5.6h-4v5.6h-3.2v4.8h3.2v5.6h4v5.6h3.2v5.6h3.2v-38.4h-3.2zm0 88.8h-3.2v5.6h-3.2v5.6h-3.2v5.6H108v5.6h-4V340h-3.2v-5.6h-3.2v-5.6h-3.2v-5.6h-3.2v-5.6H88V312h-4v5.6h-3.2v5.6h-3.2v5.6h-3.2v5.6h-3.2v5.6H68v5.6h-3.2V340h-3.2v-5.6h-4v-5.6h-3.2v-5.6h-3.2v-5.6H48v11.2h3.2v5.6H48v16.8h3.2v-5.6h3.2V340h3.2v5.6h3.2v5.6H64v5.6h-2.4v5.6h-4v5.6h-3.2v-5.6h-3.2v-5.6H48v16.8h3.2v5.6H48v11.2h3.2v-5.6h3.2v-5.6h3.2v-5.6h3.2V368H64v-5.6h3.2v5.6h3.2v5.6h3.2v5.6h3.2v5.6H80v5.6h3.2v5.6H80v5.6h-3.2v5.6h-3.2v5.6h-2.4v5.6H84v-11.2h4v11.2h12.8v-5.6h-3.2v-5.6h-3.2v-5.6h-3.2V396H88v-5.6h3.2v-5.6h3.2v-5.6h3.2v-5.6h3.2V368h3.2v-5.6h3.2v5.6h3.2v5.6h3.2v5.6h3.2v5.6h3.2v5.6h3.2v-11.2H120v-5.6h3.2v-16.8H120v5.6h-3.2v5.6h-3.2v-5.6h-3.2v-5.6h-3.2v-5.6h3.2v-5.6h3.2V340h3.2v5.6h3.2v5.6h3.2v-16.8H120v-5.6h3.2v-11.2H120v5.6h.8zM84 328.8h4V340h-4v-11.2zm-3.2 28v5.6h-3.2v5.6h-3.2v-5.6h-3.2v-5.6H68v-5.6h3.2v-5.6h3.2V340h3.2v5.6h3.2v5.6H84v5.6h-3.2zm7.2 22.4h-4V368h4v11.2zm16-22.4h-3.2v5.6h-3.2v5.6h-3.2v-5.6h-3.2v-5.6H88v-5.6h3.2v-5.6h3.2V340h3.2v5.6h3.2v5.6h3.2v5.6zm16.8-78.4h-3.2v-5.6h-4v-5.6h-3.2v5.6h-3.2v5.6H104v5.6h-3.2v5.6h-3.2v5.6h-3.2v5.6h3.2v5.6h3.2v5.6h9.6v-5.6H104v-5.6h3.2v-5.6h3.2v-5.6h3.2v5.6h4v5.6h3.2v5.6h3.2v-11.2h-3.2v-5.6h3.2V284h-3.2z" opacity=".8"/></symbol><symbol viewBox="0 0 24 24" id="chevron-right" xmlns="http://www.w3.org/2000/svg"><path fill-rule="evenodd" clip-rule="evenodd" d="M8.646 5.646a.5.5 0 01.708 0l6 6a.5.5 0 010 .708l-6 6a.5.5 0 01-.708-.708L14.293 12 8.646 6.354a.5.5 0 010-.708z"/></symbol><symbol viewBox="0 0 24 24" id="heart" xmlns="http://www.w3.org/2000/svg"><path fill-rule="evenodd" clip-rule="evenodd" d="M12.705 4.256a6 6 0 118.487 8.487l-8.84 8.84a.5.5 0 01-.707 0l-8.84-8.84a6.001 6.001 0 118.487-8.487l.706.707.707-.707zm4.243-.758a5 5 0 00-3.536 1.465l-1.06 1.06a.5.5 0 01-.707 0l-1.06-1.06a5.001 5.001 0 10-7.073 7.073l8.486 8.487 8.487-8.487a5 5 0 00-3.537-8.538z"/></symbol><symbol viewBox="0 0 20 20" id="no-view" xmlns="http://www.w3.org/2000/svg"><path d="M12.81 4.36l-1.77 1.78a4 4 0 00-4.9 4.9l-2.76 2.75C2.06 12.79.96 11.49.2 10a11 11 0 0112.6-5.64zm3.8 1.85c1.33 1 2.43 2.3 3.2 3.79a11 11 0 01-12.62 5.64l1.77-1.78a4 4 0 004.9-4.9l2.76-2.75zm-.25-3.99l1.42 1.42L3.64 17.78l-1.42-1.42L16.36 2.22z"/></symbol><symbol viewBox="0 0 58 58" id="okey" xmlns="http://www.w3.org/2000/svg"><path d="M29 0C13.01 0 0 13.009 0 29s13.01 29 29 29 29-13.009 29-29S44.99 0 29 0zm0 55.77C14.24 55.77 2.23 43.76 2.23 29S14.24 2.23 29 2.23 55.77 14.24 55.77 29 43.76 55.77 29 55.77z"/><path d="M42.666 17.105L25.523 36.392 15.196 28.13a1.116 1.116 0 00-1.393 1.742l11.154 8.923a1.114 1.114 0 001.531-.13l17.846-20.077a1.115 1.115 0 10-1.669-1.481z"/></symbol><symbol viewBox="0 0 13 13" id="post" xmlns="http://www.w3.org/2000/svg"><path d="M4.47 6.975a.374.374 0 00-.527 0 .37.37 0 000 .525l1.264 1.258c-.097.18-.152.384-.152.602 0 .705.576 1.279 1.284 1.279.709 0 1.285-.574 1.285-1.279a1.26 1.26 0 00-.152-.602l2.55-2.538a.37.37 0 000-.525.374.374 0 00-.528 0l-2.55 2.538a1.281 1.281 0 00-1.21 0L4.471 6.975zM6.879 9.36a.538.538 0 01-1.077 0 .538.538 0 011.077 0z"/><path d="M11.51 13H1.49A1.49 1.49 0 010 11.51V2.573c0-.822.668-1.49 1.49-1.49h10.02c.822 0 1.49.668 1.49 1.49v8.937A1.49 1.49 0 0111.51 13zM1.49 1.896a.678.678 0 00-.677.677v8.937c0 .374.303.678.677.678h10.02a.678.678 0 00.678-.678V2.573a.678.678 0 00-.678-.677H1.49z"/><path d="M12.594 5.146H.406a.406.406 0 010-.813h12.188a.406.406 0 010 .813zM3.115 3.25a.406.406 0 01-.407-.406V.406a.406.406 0 01.813 0v2.438a.406.406 0 01-.406.406zm6.77 0a.406.406 0 01-.406-.406V.406a.406.406 0 01.813 0v2.438a.406.406 0 01-.407.406z"/></symbol><symbol viewBox="0 0 16 16" id="quit" xmlns="http://www.w3.org/2000/svg"><path fill-rule="evenodd" d="M11.992 8.994V6.996H7.995v-2h3.997V2.999l3.998 2.998-3.998 2.998zm-1.998 2.998H5.996V2.998L2 1h7.995v2.998h1V1c0-.55-.45-.999-1-.999H.999A1.001 1.001 0 000 1v11.372c0 .39.22.73.55.91L5.996 16v-3.008h3.998c.55 0 1-.45 1-1V7.996h-1v3.998z"/></symbol><symbol viewBox="0 0 512 512" id="russia" xmlns="http://www.w3.org/2000/svg"><path d="M0 85.33v341.332h512V85.33z"/><path d="M0 85.333h512V426.67H0z"/><path d="M0 85.333h512v113.775H0zM0 312.884h512v113.775H0z"/></symbol><symbol viewBox="0 0 24 24" id="user" xmlns="http://www.w3.org/2000/svg"><path fill-rule="evenodd" clip-rule="evenodd" d="M12 12.5a5.5 5.5 0 100-11 5.5 5.5 0 000 11zm0 1.5a7 7 0 100-14 7 7 0 000 14z"/><path fill-rule="evenodd" clip-rule="evenodd" d="M22.484 24c.01-.166.016-.333.016-.5 0-4.789-4.507-9-10.5-9s-10.5 4.211-10.5 9c0 .167.006.334.016.5H.013A9.345 9.345 0 010 23.5C0 17.701 5.373 13 12 13s12 4.701 12 10.5c0 .168-.005.334-.013.5h-1.503z"/></symbol><symbol viewBox="0 0 20 20" id="view" xmlns="http://www.w3.org/2000/svg"><path d="M.2 10a11 11 0 0119.6 0A11 11 0 01.2 10zm9.8 4a4 4 0 100-8 4 4 0 000 8zm0-2a2 2 0 110-4 2 2 0 010 4z"/></symbol></svg>